<svg width="118" height="35" viewBox="0 0 118 35" fill="none" xmlns="http://www.w3.org/2000/svg">
<path d="M102.005 32.5495L117.335 17.0815L102.005 1.6155C99.8495 -0.5385 96.3555 -0.5385 94.1995 1.6155C92.0435 3.7705 92.0435 7.26452 94.1995 9.42052L101.725 17.0815L94.1995 24.7435C92.0435 26.8995 92.0435 30.3925 94.1995 32.5495C96.3545 34.7045 99.8485 34.7045 102.005 32.5495Z" fill="#E2E2FF"/>
<path d="M79.4865 32.5495L94.8175 17.0815L79.4865 1.6155C77.3325 -0.5385 73.8365 -0.5385 71.6825 1.6155C69.5265 3.7705 69.5265 7.26452 71.6825 9.42052L79.2075 17.0815L71.6825 24.7435C69.5265 26.8995 69.5265 30.3925 71.6825 32.5495C73.8365 34.7045 77.3325 34.7045 79.4865 32.5495Z" fill="#E2E2FF"/>
<path d="M56.9705 32.5495L72.2995 17.0815L56.9705 1.6155C54.8145 -0.5385 51.3215 -0.5385 49.1645 1.6155C47.0105 3.7705 47.0105 7.26452 49.1645 9.42052L56.6905 17.0815L49.1645 24.7435C47.0105 26.8995 47.0105 30.3925 49.1645 32.5495C51.3215 34.7045 54.8145 34.7045 56.9705 32.5495Z" fill="#E2E2FF"/>
<path d="M34.4545 32.5495L49.7855 17.0815L34.4545 1.6155C32.2985 -0.5385 28.8055 -0.5385 26.6485 1.6155C24.4945 3.7705 24.4945 7.26452 26.6485 9.42052L34.1745 17.0815L26.6485 24.7435C24.4945 26.8995 24.4945 30.3925 26.6485 32.5495C28.8035 34.7045 32.2975 34.7045 34.4545 32.5495Z" fill="#E2E2FF"/>
<path d="M11.9375 32.5495L27.2685 17.0815L11.9375 1.6155C9.78149 -0.5385 6.28849 -0.5385 4.13249 1.6155C1.97749 3.7705 1.97749 7.26452 4.13249 9.42052L11.6585 17.0815L4.13249 24.7435C1.97749 26.8995 1.97749 30.3925 4.13249 32.5495C6.28749 34.7045 9.78149 34.7045 11.9375 32.5495Z" fill="#E2E2FF"/>
<path d="M-10.5795 32.5495L4.75251 17.0815L-10.5795 1.6155C-12.7355 -0.5385 -16.2285 -0.5385 -18.3845 1.6155C-20.5385 3.7705 -20.5385 7.26452 -18.3845 9.42052L-10.8585 17.0815L-18.3845 24.7435C-20.5385 26.8995 -20.5385 30.3925 -18.3845 32.5495C-16.2285 34.7045 -12.7355 34.7045 -10.5795 32.5495Z" fill="#E2E2FF"/>
</svg>
