<svg width="35" height="129" viewBox="0 0 35 129" fill="none" xmlns="http://www.w3.org/2000/svg">
<path d="M12.998 75.5844C14.1959 77.393 16.7954 77.3014 18.6075 76.6323C21.6114 75.147 23.0892 71.9214 24.8744 69.2914C20.1088 65.6641 13.9297 70.613 12.998 75.5844ZM3.01279 42.4779C8.66713 44.8911 13.3189 38.8511 16.346 34.9277C10.6392 33.5707 4.2192 36.3388 3.01279 42.4779ZM16.5912 4.17486e-06C21.3451 2.76894 22.6103 8.49698 23.6184 13.4953C24.563 19.7232 24.2876 26.1984 21.9268 32.1012C26.4912 35.4711 31.0163 39.7094 32.2513 45.503C34.2246 52.9862 33.3156 60.9642 30.5921 68.1458C35.7109 75.0811 34.9749 84.5251 32.4102 92.3109C29.8113 102.273 23.8434 110.959 16.9107 118.42C22.0671 116.985 26.9116 114.667 32.0507 113.249C32.6187 113.514 33.7458 114.073 34.3169 114.356C30.5609 117.287 25.7787 118.274 21.5371 120.274C15.196 122.686 9.35907 126.288 2.89705 128.362C0.662952 127.374 2.3354 125.192 2.76737 123.592C6.01124 116.375 8.38215 108.804 11.6936 101.633C12.3464 99.961 14.0872 99.5966 15.6762 99.6373C14.9532 105.715 12.8445 111.482 10.7798 117.208C16.1758 111.543 21.7336 105.693 24.9404 98.4497C27.904 90.5126 30.4543 81.8066 28.0573 73.3589C25.4166 76.6725 22.3594 80.6614 17.7063 80.7852C14.2403 81.1413 9.40574 79.6096 9.41806 75.4479C9.77217 67.6403 19.4011 60.1527 26.7696 64.8505C28.7783 58.576 29.3448 51.6813 27.4339 45.3164C26.208 41.4461 23.027 38.679 20.0465 36.1546C16.9919 40.7087 12.9406 45.2526 7.38748 46.5684C4.54762 47.0623 0.503023 46.1494 0.052035 42.8022C-0.47895 37.7547 3.11894 32.8227 7.85836 31.2261C11.2114 29.8274 14.8997 30.2777 18.397 30.796C22.0333 21.5252 20.7898 10.8912 16.6194 2.02097C16.6039 1.51376 16.5957 0.50268 16.5912 4.17486e-06Z" fill="#B2C0FE"/>
</svg>
